<svg width="40" height="27" viewBox="0 0 40 27" fill="none" xmlns="http://www.w3.org/2000/svg">
<path d="M0.176 26.544L3.632 13.616C4.74133 9.392 6.53333 6.27733 9.008 4.272C11.4827 2.224 15.4293 1.072 20.848 0.815998L21.232 6.128C18.8427 6.42666 17.0293 7.04533 15.792 7.984C14.5547 8.88 13.68 10.16 13.168 11.824H18.672L14.704 26.544H0.176ZM17.968 26.544L21.424 13.616C22.5333 9.392 24.3253 6.27733 26.8 4.272C29.2747 2.224 33.2213 1.072 38.64 0.815998L39.024 6.128C36.6347 6.42666 34.8213 7.04533 33.584 7.984C32.3467 8.88 31.472 10.16 30.96 11.824H36.464L32.496 26.544H17.968Z" fill="#E7E7E7"/>
</svg>
