<svg width="163" height="19" viewBox="0 0 163 19" fill="none" xmlns="http://www.w3.org/2000/svg">
<path d="M0.496 18V1.2H1.024V17.52H11.344V18H0.496ZM26.9483 15.744C25.3963 17.44 23.3883 18.288 20.9243 18.288C18.4603 18.288 16.4523 17.44 14.9003 15.744C13.3483 14.032 12.5723 11.992 12.5723 9.624V9.576C12.5723 7.208 13.3483 5.176 14.9003 3.48C16.4523 1.768 18.4603 0.912 20.9243 0.912C23.3883 0.912 25.3963 1.768 26.9483 3.48C28.5003 5.176 29.2763 7.208 29.2763 9.576V9.624C29.2763 11.992 28.5003 14.032 26.9483 15.744ZM15.3083 15.384C16.7803 17 18.6603 17.808 20.9483 17.808C23.2363 17.808 25.1083 17.008 26.5643 15.408C28.0203 13.792 28.7483 11.872 28.7483 9.648V9.6C28.7483 7.376 28.0123 5.456 26.5403 3.84C25.0683 2.208 23.1883 1.392 20.9003 1.392C18.6123 1.392 16.7403 2.2 15.2843 3.816C13.8283 5.416 13.1003 7.328 13.1003 9.552V9.6C13.1003 11.824 13.8363 13.752 15.3083 15.384ZM33.5194 18V1.2H40.3834C42.5434 1.2 44.1514 1.728 45.2074 2.784C46.0074 3.584 46.4074 4.624 46.4074 5.904V5.952C46.4074 7.328 45.9034 8.432 44.8954 9.264C43.8874 10.096 42.5594 10.56 40.9114 10.656L46.5034 18H45.8554L40.2874 10.68H34.0474V18H33.5194ZM34.0474 10.2H40.1194C41.9914 10.2 43.4154 9.808 44.3914 9.024C45.3834 8.24 45.8794 7.224 45.8794 5.976V5.928C45.8794 4.584 45.3914 3.544 44.4154 2.808C43.4394 2.056 42.0794 1.68 40.3354 1.68H34.0474V10.2ZM50.8866 18V1.2H62.6226V1.68H51.4146V9.312H61.5906V9.792H51.4146V17.52H62.7426V18H50.8866ZM66.7538 18V1.2H67.2578L74.5778 11.616L81.8978 1.2H82.3778V18H81.8498V2.088L74.5778 12.456H74.5538L67.2818 2.088V18H66.7538ZM85.8908 18V1.2H91.5068V18H85.8908ZM93.4834 18V1.2H101.043C103.347 1.2 105.171 1.712 106.515 2.736C107.875 3.76 108.555 5.24 108.555 7.176V7.224C108.555 9.208 107.859 10.744 106.467 11.832C105.091 12.904 103.243 13.44 100.923 13.44H99.0994V18H93.4834ZM99.0994 9.432H100.611C101.347 9.432 101.931 9.272 102.363 8.952C102.795 8.632 103.011 8.176 103.011 7.584V7.536C103.011 6.304 102.219 5.688 100.635 5.688H99.0994V9.432ZM116.973 18.312C113.357 18.312 110.485 17.368 108.357 15.48L111.357 11.904C113.053 13.216 115.013 13.872 117.237 13.872C118.197 13.872 118.677 13.632 118.677 13.152V13.104C118.677 12.864 118.509 12.664 118.173 12.504C117.853 12.344 117.245 12.176 116.349 12C115.501 11.824 114.765 11.656 114.141 11.496C113.533 11.32 112.901 11.088 112.245 10.8C111.589 10.496 111.061 10.168 110.661 9.816C110.261 9.448 109.925 8.992 109.653 8.448C109.397 7.904 109.269 7.288 109.269 6.6V6.552C109.269 4.904 109.893 3.552 111.141 2.496C112.405 1.424 114.157 0.887999 116.397 0.887999C119.501 0.887999 122.029 1.656 123.981 3.192L121.245 6.984C119.709 5.88 118.029 5.328 116.205 5.328C115.389 5.328 114.981 5.56 114.981 6.024V6.072C114.981 6.312 115.133 6.52 115.437 6.696C115.757 6.856 116.349 7.008 117.213 7.152C119.581 7.568 121.365 8.184 122.565 9C123.781 9.816 124.389 11.008 124.389 12.576V12.624C124.389 14.384 123.717 15.776 122.373 16.8C121.045 17.808 119.245 18.312 116.973 18.312ZM133.799 18.336C131.191 18.336 129.159 17.696 127.703 16.416C126.263 15.136 125.543 13.152 125.543 10.464V1.2H131.255V10.392C131.255 11.4 131.487 12.152 131.951 12.648C132.415 13.128 133.047 13.368 133.847 13.368C135.575 13.368 136.439 12.416 136.439 10.512V1.2H142.151V10.344C142.151 13.096 141.415 15.12 139.943 16.416C138.487 17.696 136.439 18.336 133.799 18.336ZM143.921 18V1.2H149.777L153.377 7.104L156.977 1.2H162.833V18H157.241V9.672L153.377 15.648H153.281L149.417 9.672V18H143.921Z" fill="black"/>
</svg>
