<svg width="644" height="71" viewBox="0 0 644 71" fill="none" xmlns="http://www.w3.org/2000/svg">
<path d="M0.84 69V1.8H23.304V49.8H54.888V69H0.84ZM91.005 70.44C80.637 70.44 71.933 67.08 64.893 60.36C57.917 53.64 54.429 45.384 54.429 35.592V35.4C54.429 25.608 57.981 17.32 65.085 10.536C72.189 3.752 80.893 0.359997 91.197 0.359997C101.565 0.359997 110.237 3.72 117.213 10.44C124.253 17.16 127.773 25.416 127.773 35.208V35.4C127.773 45.192 124.221 53.48 117.117 60.264C110.013 67.048 101.309 70.44 91.005 70.44ZM81.021 46.152C83.645 49.096 87.037 50.568 91.197 50.568C95.357 50.568 98.717 49.096 101.277 46.152C103.837 43.208 105.117 39.688 105.117 35.592V35.4C105.117 31.24 103.805 27.688 101.181 24.744C98.557 21.736 95.165 20.232 91.005 20.232C86.845 20.232 83.485 21.704 80.925 24.648C78.365 27.592 77.085 31.112 77.085 35.208V35.4C77.085 39.56 78.397 43.144 81.021 46.152ZM133.871 69V1.8H166.703C177.711 1.8 185.775 4.36 190.895 9.48C194.991 13.576 197.039 18.888 197.039 25.416V25.608C197.039 35.016 192.623 41.864 183.791 46.152L199.439 69H173.807L161.135 49.8H156.335V69H133.871ZM156.335 33.768H166.031C168.719 33.768 170.831 33.192 172.367 32.04C173.903 30.888 174.671 29.288 174.671 27.24V27.048C174.671 22.76 171.823 20.616 166.127 20.616H156.335V33.768ZM202.496 69V1.8H259.808V20.232H224.576V27.048H257.408V43.272H224.576V50.568H260.288V69H202.496ZM266.34 69V1.8H289.764L304.164 25.416L318.564 1.8H341.988V69H319.62V35.688L304.164 59.592H303.78L288.324 35.688V69H266.34ZM356.5 69V1.8H361.492V69H356.5ZM382.172 69V1.8H406.556C414.044 1.8 420.06 3.624 424.604 7.272C429.212 10.92 431.516 15.944 431.516 22.344V22.536C431.516 29.32 429.02 34.6 424.028 38.376C419.036 42.088 412.796 43.944 405.308 43.944H387.164V69H382.172ZM387.164 39.336H405.596C411.868 39.336 416.924 37.832 420.764 34.824C424.604 31.816 426.524 27.816 426.524 22.824V22.632C426.524 17.448 424.668 13.448 420.956 10.632C417.244 7.816 412.316 6.408 406.172 6.408H387.164V39.336ZM469.049 69.96C459.001 69.96 449.977 66.376 441.977 59.208L445.241 55.464C449.017 58.984 452.761 61.544 456.473 63.144C460.185 64.68 464.473 65.448 469.337 65.448C474.329 65.448 478.393 64.2 481.529 61.704C484.729 59.144 486.329 55.944 486.329 52.104V51.912C486.329 48.2 484.985 45.256 482.297 43.08C479.673 40.904 474.681 39.08 467.321 37.608C459.193 35.944 453.369 33.672 449.849 30.792C446.393 27.848 444.665 23.816 444.665 18.696V18.504C444.665 13.512 446.713 9.32 450.809 5.928C454.905 2.536 460.057 0.839996 466.265 0.839996C471.001 0.839996 475.129 1.512 478.649 2.856C482.233 4.136 485.785 6.184 489.305 9L486.137 12.936C480.185 7.88 473.497 5.352 466.073 5.352C461.209 5.352 457.241 6.6 454.169 9.096C451.161 11.528 449.657 14.504 449.657 18.024V18.216C449.657 21.992 451.001 25 453.689 27.24C456.441 29.416 461.625 31.304 469.241 32.904C477.049 34.504 482.681 36.776 486.137 39.72C489.593 42.6 491.321 46.504 491.321 51.432V51.624C491.321 57 489.241 61.416 485.081 64.872C480.921 68.264 475.577 69.96 469.049 69.96ZM534.199 70.056C525.943 70.056 519.287 67.528 514.231 62.472C509.175 57.416 506.647 50.28 506.647 41.064V1.8H511.639V40.584C511.639 48.584 513.623 54.76 517.591 59.112C521.623 63.4 527.223 65.544 534.391 65.544C541.303 65.544 546.743 63.464 550.711 59.304C554.743 55.08 556.759 49 556.759 41.064V1.8H561.751V40.488C561.751 49.896 559.255 57.192 554.263 62.376C549.271 67.496 542.583 70.056 534.199 70.056ZM580.64 69V1.8H585.344L612.32 41.544L639.296 1.8H644V69H639.008V10.632L612.416 49.32H612.032L585.44 10.632V69H580.64Z" fill="#E7E7E7"/>
</svg>
